<svg width="291" height="291" viewBox="0 0 291 291" fill="none" xmlns="http://www.w3.org/2000/svg">
<circle cx="145.5" cy="145.5" r="143" stroke="#949494" stroke-width="5"/>
<path fill-rule="evenodd" clip-rule="evenodd" d="M95.3403 164.737L41 44.5L49 36L58.5 29L102.055 121.028L96 145.5V163.5L95.3403 164.737ZM150.37 286.5H120C114.533 286.5 101.061 280.29 90.2697 275.315C86.0605 273.375 82.2593 271.622 79.5 270.5L71 259L82 262L55 229L46 211V194L55 163.5L63.5 150.5L67.5 163.5L74.5 178.5H88L95.3403 164.737L150.37 286.5ZM152.52 286.498L151.5 289L150.37 286.5H152.5L152.52 286.498ZM209.091 147.773L214 150.5L224.5 138L240 163.5L245.5 201.5C245.167 206.167 243.6 216.1 240 218.5C235.5 221.5 224.5 238 224.5 240.5C224.5 242.5 220.5 248 218.5 250.5H232.5L224.5 262L214 270.5L194 279L173.5 284L152.52 286.498L209.091 147.773ZM209.091 147.773L205 145.5L201 133.5V109.5L199.368 105.527L230.5 27.5L241.5 35.5L251 45L209.091 147.773ZM199.368 105.527L151.5 225.5L102.055 121.028L108 97L127 91V70L122.5 45V38L153.5 54L173.5 67L189.5 81.5L199.368 105.527ZM60 115C59.5 114.5 57.8 115.5 55 123.5C52.2 131.5 50.8333 136.5 50.5 138L55 150.5L67.5 138V123.5C67.5 120.3 66.3889 107.167 65.8333 101L60 115Z" fill="#949494"/>
</svg>
